<?xml version="1.0" standalone="no"?>
<!DOCTYPE svg PUBLIC "-//W3C//DTD SVG 20010904//EN"
 "http://www.w3.org/TR/2001/REC-SVG-20010904/DTD/svg10.dtd">
<svg version="1.0" xmlns="http://www.w3.org/2000/svg"
 width="821.000000pt" height="270.000000pt" viewBox="0 0 821.000000 270.000000"
 preserveAspectRatio="xMidYMid meet">

<g transform="translate(0.000000,270.000000) scale(0.100000,-0.100000)"
fill="#000000" stroke="none">
<path d="M0 1350 l0 -1350 4105 0 4105 0 0 1350 0 1350 -3567 -1 c-2005 -1
-3549 -5 -3525 -10 183 -36 197 -226 31 -403 -79 -85 -209 -152 -246 -128 -18
12 -2 29 78 85 122 85 229 225 229 299 0 18 -10 39 -26 55 -47 47 -124 21
-319 -108 -244 -161 -500 -465 -613 -725 -132 -306 -120 -560 32 -649 58 -34
119 -35 211 -5 219 72 440 249 668 537 128 160 184 194 261 158 50 -24 51 -60
1 -74 -51 -14 -92 -46 -121 -97 -20 -34 -24 -48 -15 -57 19 -19 76 18 175 113
55 53 101 90 113 90 43 0 58 -52 38 -135 -37 -153 4 -191 129 -121 67 38 194
139 203 162 3 8 -2 32 -11 54 -22 56 -20 96 9 145 59 101 205 85 205 -22 0
-21 -9 -53 -21 -72 -11 -18 -18 -35 -15 -38 2 -3 28 0 56 6 65 14 66 14 85 -5
24 -24 13 -53 -55 -154 -84 -123 -113 -190 -114 -265 -1 -54 1 -60 20 -63 40
-6 296 271 396 428 19 30 57 105 83 165 99 228 299 593 348 633 24 20 57 6 57
-24 0 -13 -40 -102 -88 -197 -260 -507 -384 -830 -399 -1044 -6 -82 -6 -83 18
-83 51 0 234 229 334 418 20 38 51 87 69 109 18 21 49 63 69 95 48 74 79 98
131 98 54 0 105 -27 134 -70 20 -30 23 -46 21 -110 -2 -69 0 -75 17 -72 28 5
130 62 149 82 16 17 13 21 -48 72 -66 54 -168 110 -270 148 -32 12 -58 29 -65
43 -21 43 -23 65 -6 81 49 50 268 103 517 125 60 5 104 14 112 22 8 8 40 91
73 184 73 212 76 217 110 213 26 -3 27 -4 25 -68 -1 -42 -14 -106 -37 -182
-20 -64 -36 -123 -36 -132 0 -14 18 -16 128 -16 189 -1 428 -22 616 -54 86
-15 94 -20 98 -56 l3 -25 -110 1 c-60 0 -212 6 -337 12 -124 7 -274 9 -333 5
-96 -5 -108 -8 -115 -27 -18 -46 -112 -342 -165 -516 -30 -102 -95 -302 -143
-445 l-87 -260 -43 -3 c-30 -2 -44 1 -48 12 -7 18 17 105 103 381 121 389 127
415 99 415 -7 0 -19 -6 -25 -14 -16 -19 -104 -60 -172 -79 -37 -11 -78 -34
-120 -68 -115 -93 -179 -109 -258 -64 -24 14 -47 22 -51 18 -4 -4 -34 -48 -68
-98 -114 -169 -218 -265 -286 -265 -17 0 -45 9 -63 20 -66 40 -69 148 -8 390
l7 25 -22 -25 c-11 -14 -48 -58 -82 -98 -140 -168 -287 -211 -344 -101 -36 70
-8 186 73 307 25 37 47 70 49 73 2 4 -2 9 -9 12 -27 10 -88 -22 -150 -79 -116
-106 -242 -165 -321 -150 -64 12 -116 75 -116 141 0 34 -11 32 -67 -17 -54
-46 -115 -77 -153 -78 -14 0 -43 9 -65 20 l-38 19 -136 -137 c-78 -79 -169
-161 -213 -190 -295 -200 -600 -229 -743 -70 -63 69 -88 137 -93 253 -8 174
19 286 117 490 102 213 220 376 385 532 153 145 332 255 464 288 51 12 1 13
-460 14 l-518 1 0 -1350z m7446 1264 c10 -38 -3 -112 -41 -236 -19 -62 -35
-121 -35 -130 0 -16 14 -18 148 -19 81 0 167 -2 192 -5 25 -2 90 -9 145 -15
164 -16 319 -40 333 -51 13 -12 16 -54 4 -62 -4 -2 -93 0 -197 5 -275 14 -646
12 -662 -4 -15 -16 -130 -345 -182 -524 -79 -273 -213 -668 -234 -690 -35 -39
-87 -25 -87 24 0 17 202 685 227 749 12 31 -23 10 -110 -67 -51 -45 -154 -131
-230 -192 -81 -65 -139 -118 -141 -131 -3 -11 -7 -52 -10 -91 -14 -197 -163
-475 -254 -475 -35 0 -77 37 -98 85 -19 45 -18 174 1 295 24 145 52 280 69
329 23 63 21 65 -32 26 -75 -53 -152 -63 -219 -26 -32 17 -70 88 -78 146 -4
28 -10 54 -12 58 -10 18 -325 -183 -359 -229 -11 -16 -69 -101 -129 -189 -308
-457 -458 -596 -588 -542 -74 31 -86 124 -30 230 37 71 189 220 354 347 76 58
136 106 134 108 -2 2 -21 -6 -43 -17 -52 -27 -185 -61 -237 -61 -160 0 -308
109 -351 258 -21 72 -15 205 15 320 53 203 245 468 426 587 134 88 306 139
391 116 92 -25 128 -80 128 -193 0 -66 -5 -85 -34 -144 -40 -82 -158 -206
-240 -253 -106 -60 -107 -37 -1 75 135 142 201 259 201 356 0 83 -27 94 -132
54 -147 -55 -260 -128 -371 -239 -214 -214 -329 -526 -264 -715 37 -104 92
-144 196 -143 203 2 427 157 589 409 107 165 113 171 153 131 27 -27 21 -53
-42 -188 -45 -96 -57 -131 -44 -131 10 0 280 172 303 193 13 12 37 46 54 77
41 73 57 90 83 90 53 0 59 -59 15 -160 -73 -166 -79 -319 -12 -328 29 -4 104
51 172 125 52 56 92 132 201 377 91 205 267 492 335 545 46 36 121 22 143 -26
19 -41 13 -120 -15 -189 -14 -36 -24 -68 -21 -70 9 -10 302 26 313 39 7 6 30
64 52 127 79 226 94 261 116 270 32 13 35 12 42 -16z m-1210 -550 c10 -41 -8
-86 -44 -107 -38 -22 -62 -11 -62 30 0 73 91 139 106 77z m1643 -75 c17 -6 36
-20 42 -31 16 -29 -7 -47 -69 -55 -63 -7 -94 -36 -94 -86 0 -41 6 -53 50 -101
41 -45 60 -45 157 1 61 29 90 36 139 37 58 1 61 0 61 -24 0 -26 -9 -31 -199
-104 -86 -32 -90 -35 -101 -72 -36 -122 -114 -184 -230 -184 -66 0 -92 12
-106 47 -22 59 32 125 153 184 61 29 68 50 31 95 -77 97 -83 107 -83 149 0
109 131 185 249 144z m-3888 -195 c42 -21 34 -44 -23 -61 -67 -19 -158 -127
-130 -155 22 -22 67 5 167 102 104 102 129 115 159 84 20 -19 20 -63 1 -153
-19 -90 -10 -121 36 -121 41 0 132 49 206 111 32 27 76 63 98 79 66 52 103 25
56 -40 -31 -44 -149 -136 -215 -169 -148 -73 -249 -39 -271 91 -4 21 -9 38
-12 38 -3 0 -26 -17 -52 -39 -65 -54 -109 -74 -163 -74 -93 0 -134 64 -104
164 36 126 151 193 247 143z m-1882 -1435 c60 -13 100 -44 122 -93 58 -128
-26 -256 -169 -256 -106 0 -182 73 -182 175 0 86 48 150 130 173 46 13 47 13
99 1z m1219 -10 c23 -9 26 -17 16 -43 -5 -14 -9 -14 -34 -1 -66 34 -154 8
-148 -43 3 -24 12 -30 88 -54 112 -36 140 -72 109 -141 -25 -55 -133 -75 -219
-41 -40 16 -47 28 -31 53 7 11 12 11 32 -2 59 -37 152 -33 171 8 16 35 -11 61
-79 76 -84 19 -117 46 -121 96 -7 90 100 136 216 92z m3615 -1 c29 -11 31 -16
19 -36 -7 -10 -18 -10 -53 -1 -61 16 -117 5 -131 -26 -16 -35 11 -61 79 -76
101 -23 137 -64 119 -136 -15 -55 -136 -83 -217 -49 -45 19 -50 25 -39 47 10
17 12 17 53 -1 78 -36 152 -19 152 35 0 28 -4 31 -75 55 -103 34 -118 45 -125
84 -18 96 96 151 218 104z m-5473 -8 c0 -19 -7 -20 -95 -20 l-95 0 0 -60 0
-60 85 0 c84 0 85 0 85 -25 0 -25 -1 -25 -85 -25 l-85 0 0 -70 c0 -68 -1 -70
-25 -70 l-25 0 0 175 0 175 120 0 c113 0 120 -1 120 -20z m160 -130 l0 -150
95 0 c95 0 95 0 95 -25 l0 -25 -120 0 -120 0 0 175 0 175 25 0 25 0 0 -150z
m967 124 c59 -44 61 -138 4 -187 l-28 -23 38 -55 c22 -29 39 -55 39 -56 0 -2
-13 -3 -28 -3 -23 0 -36 10 -67 55 l-37 55 -54 0 -54 0 0 -55 c0 -52 -1 -55
-25 -55 l-25 0 0 176 0 176 104 -4 c87 -2 109 -7 133 -24z m411 5 c-3 -20 -9
-22 -98 -23 l-95 -1 -3 -52 -3 -53 90 0 c84 0 91 -1 91 -20 0 -19 -7 -20 -90
-20 l-90 0 0 -55 0 -54 103 -3 c97 -3 102 -4 105 -25 3 -23 3 -23 -127 -23
l-131 0 0 175 0 175 126 0 c122 0 125 -1 122 -21z m693 -64 c29 -47 55 -85 58
-85 3 0 28 36 55 81 50 82 62 93 91 87 12 -2 -1 -29 -55 -116 -66 -107 -70
-117 -70 -173 0 -56 -1 -59 -25 -59 -24 0 -25 3 -25 62 0 59 -3 68 -65 169
-36 58 -65 109 -65 113 0 3 11 6 25 6 20 0 34 -15 76 -85z m706 70 c73 -31
106 -81 105 -161 0 -66 -22 -107 -74 -141 -37 -25 -52 -28 -150 -32 l-108 -3
0 176 0 176 95 0 c63 0 108 -5 132 -15z m461 -6 c-3 -21 -9 -22 -95 -22 l-93
-1 0 -53 0 -53 85 0 c78 0 85 -2 85 -20 0 -18 -7 -20 -85 -20 l-85 0 0 -55 0
-55 100 0 100 0 0 -25 0 -25 -129 0 -129 0 0 168 c0 92 2 170 5 175 2 4 58 7
124 7 117 0 120 -1 117 -21z m362 1 c0 -18 -7 -20 -55 -20 l-55 0 0 -155 0
-155 -29 0 -29 0 -1 147 c-1 103 -5 150 -14 155 -7 4 -32 8 -57 8 -39 0 -46 3
-47 20 -2 19 4 20 143 20 137 0 144 -1 144 -20z m309 -142 c40 -90 76 -169 78
-176 3 -8 -4 -12 -21 -12 -22 0 -31 8 -47 45 l-20 45 -90 0 -89 0 -22 -45
c-17 -35 -28 -45 -46 -45 -28 0 -27 7 28 125 20 44 52 113 70 153 29 63 36 72
59 72 25 0 32 -12 100 -162z m221 12 l0 -150 95 0 c95 0 95 0 95 -25 l0 -25
-120 0 -120 0 0 175 0 175 25 0 25 0 0 -150z m336 123 c1 -13 2 -79 3 -148 l1
-125 90 0 c89 0 90 0 90 -25 l0 -25 -120 0 -120 0 0 176 0 175 28 -3 c20 -2
27 -9 28 -25z m524 5 c0 -22 -3 -23 -95 -22 l-95 1 0 -54 0 -53 85 0 c78 0 85
-2 85 -20 0 -18 -7 -20 -85 -20 l-85 0 0 -55 0 -55 100 0 100 0 0 -25 0 -26
-127 3 -128 3 -2 173 -3 172 125 0 c123 0 125 0 125 -22z"/>
<path d="M6801 2271 c-41 -61 -71 -114 -68 -117 3 -3 28 16 55 43 46 46 98
149 89 176 -1 5 -36 -41 -76 -102z"/>
<path d="M6945 2086 c-65 -16 -117 -42 -145 -71 l-22 -23 24 -16 c104 -74 209
-154 240 -184 24 -22 41 -32 47 -27 13 15 90 258 93 297 l3 33 -95 2 c-52 1
-117 -4 -145 -11z"/>
<path d="M6632 1993 c-12 -17 -26 -42 -31 -56 -16 -41 11 -24 38 24 28 49 23
73 -7 32z"/>
<path d="M6723 1903 c-12 -10 -67 -70 -124 -133 -103 -116 -163 -216 -171
-285 -3 -28 0 -30 37 -35 23 -3 58 -16 78 -29 l38 -23 72 55 c86 66 292 243
327 282 l25 27 -44 40 c-49 42 -150 103 -192 113 -17 4 -32 0 -46 -12z"/>
<path d="M6425 1319 c-11 -17 1 -21 15 -4 8 9 8 15 2 15 -6 0 -14 -5 -17 -11z"/>
<path d="M5360 1249 c-60 -37 -261 -194 -337 -263 -102 -94 -153 -208 -106
-235 58 -32 243 153 420 419 76 116 75 110 23 79z"/>
<path d="M6383 1186 c-58 -27 -57 -26 -69 -218 -7 -110 -1 -163 16 -153 18 11
57 98 89 198 30 93 40 180 23 191 -5 3 -31 -6 -59 -18z"/>
<path d="M7663 1485 c-15 -13 -23 -25 -16 -25 7 0 25 11 40 25 15 13 23 25 16
25 -7 0 -25 -11 -40 -25z"/>
<path d="M2000 302 c-105 -55 -84 -211 33 -243 105 -28 198 81 151 178 -37 74
-114 102 -184 65z"/>
<path d="M2414 311 c-2 -2 -4 -38 -4 -79 l0 -74 69 4 c83 4 111 23 111 75 0
36 -28 72 -57 74 -54 4 -115 3 -119 0z"/>
<path d="M4230 191 l0 -131 70 0 c110 0 160 39 160 125 0 83 -49 123 -161 132
l-69 6 0 -132z"/>
<path d="M5402 223 c-19 -41 -32 -77 -29 -79 3 -3 34 -4 70 -2 l66 3 -30 70
c-17 39 -33 73 -37 77 -4 4 -22 -27 -40 -69z"/>
<path d="M3415 2044 c-102 -17 -237 -56 -242 -69 -1 -6 33 -27 78 -49 87 -42
154 -90 236 -169 29 -28 54 -49 57 -46 7 8 85 284 88 314 l3 30 -70 2 c-38 1
-106 -5 -150 -13z"/>
<path d="M2036 1849 c-26 -31 -43 -75 -33 -86 20 -19 77 51 77 95 0 30 -13 28
-44 -9z"/>
<path d="M3130 1769 c-41 -16 -60 -40 -60 -74 0 -34 38 -85 64 -85 21 0 54 46
67 93 10 38 9 43 -11 59 -25 20 -26 20 -60 7z"/>
<path d="M2975 1557 c-30 -58 -29 -107 2 -107 21 0 79 44 100 76 15 24 15 26
-12 54 -41 43 -58 38 -90 -23z"/>
</g>
</svg>
